<svg width="22pt" height="22pt" viewBox="0 0 100 100" xmlns="http://www.w3.org/2000/svg" xmlns:svg="http://www.w3.org/2000/svg">
 <metadata id="metadata7">image/svg+xml</metadata>
 <g>
  <title>Layer 1</title>
  <g id="layer1">
   <path d="m48.98237,97.8691l-41.98313,-24.239l0,-48.47796l41.98313,-24.23897l41.98313,24.23897l0,48.47796l-41.98313,24.239z" id="path4142" stroke-miterlimit="4" stroke-width="1.2218" stroke="#a0a0ff" fill="#a0a0ff"/>
   <path id="svg_3" d="m73.1813,28.26401l-15.55706,15.81597c0.61319,0.6247 0.61206,1.63724 0,2.25944c-0.61371,0.62398 -1.60823,0.62448 -2.22362,0l-6.66496,-6.77579c-0.61439,-0.62462 -0.61363,-1.63801 0,-2.26065c0.61329,-0.62358 1.60695,-0.62444 2.22244,0l0,0l15.55707,-15.81609c1.84112,-1.87179 4.8262,-1.87179 6.66732,0c1.84113,1.87178 1.84112,4.90654 -0.00001,6.77832l-0.00118,-0.0012zm-50.00484,46.31849l-2.22244,-2.2595l3.30621,-5.6205l3.36112,-1.1578l23.33557,-23.72413l2.22243,2.25941l-23.33556,23.72422l-1.13868,3.417l-5.52865,3.3613z" fill-rule="evenodd"/>
  </g>
 </g>
</svg>